# 
# 
mtllib Dog_Food_Can.mtl
o DogFoodCan
v 0.025184 0.195978 0.066827
v 0.067130 0.258202 0.036226
v -0.050903 0.000626 -0.062792
v -0.072745 0.259665 -0.017069
v -0.078490 0.001133 -0.016662
v -0.069962 0.001204 0.036458
v -0.029266 0.000880 0.071608
v 0.026796 0.258765 0.069051
v 0.024505 0.000152 0.072428
v 0.076950 0.257893 -0.014813
v 0.076293 -0.000784 -0.014315
v 0.050131 -0.000617 -0.061337
v 0.003017 0.258567 -0.078806
v 0.064130 0.195397 0.035193
v 0.049173 0.195213 -0.058093
v 0.051618 0.258066 -0.060271
v 0.002196 0.195797 -0.075988
v -0.046100 0.259242 -0.061712
v -0.070981 0.196825 -0.016370
v -0.064556 0.259758 0.034247
v -0.025199 0.259417 0.068308
v -0.024988 0.196620 0.066119
v -0.063072 0.196962 0.033258
v -0.045252 0.196380 -0.059444
v 0.073572 0.195126 -0.014166
v 0.066176 -0.000467 0.038448
v -0.000068 -0.000068 -0.080474
v -0.058319 0.258984 -0.037520
v -0.038971 0.266088 -0.050533
v -0.072664 0.256610 -0.017915
v -0.000582 0.297261 -0.055532
v -0.085984 0.273457 0.026967
v -0.088754 0.316087 0.048514
v -0.069277 0.359618 0.046160
v -0.036555 0.383834 0.021168
v -0.005906 0.377290 -0.015014
v -0.005971 0.381028 -0.017330
v 0.008282 0.343112 -0.045316
v -0.004229 0.298697 -0.058836
v 0.008975 0.345107 -0.049143
v -0.000333 0.296922 -0.059804
v -0.041045 0.266374 -0.054352
v 0.004711 0.344514 -0.048572
v -0.041659 0.270029 -0.052166
v -0.075401 0.260708 -0.019559
v -0.076439 0.256466 -0.020079
v -0.089503 0.274931 0.023671
v -0.089992 0.271933 0.026853
v -0.009501 0.378792 -0.018356
v -0.038127 0.387842 0.020644
v -0.040132 0.385283 0.017752
v -0.072452 0.362467 0.047016
v -0.072848 0.361021 0.042903
v -0.092981 0.316670 0.049429
v -0.092399 0.317522 0.045212
vt 0.166387 0.529527
vt 0.073153 0.000000
vt 0.167821 0.000000
vt 0.424665 0.529527
vt 0.343608 0.000000
vt 0.423261 0.000000
vt 0.801782 0.099673
vt 0.946745 0.099673
vt 0.801782 0.001984
vt 0.043495 0.839403
vt 0.043495 0.702877
vt 0.030559 0.771140
vt 0.137857 0.944005
vt 0.137857 0.598274
vt 0.282415 0.574583
vt 0.459783 0.771140
vt 0.409561 0.642845
vt 0.409561 0.899434
vt 0.282415 0.967696
vt 0.417936 0.905973
vt 0.284336 0.977706
vt 0.132408 0.952781
vt 0.033227 0.842873
vt 0.033227 0.699406
vt 0.132408 0.589497
vt 0.470682 0.771140
vt 0.417936 0.636306
vt 0.284336 0.564573
vt 0.801782 0.047456
vt 0.946745 0.047456
vt 0.801782 0.295785
vt 0.946745 0.295785
vt -0.012940 0.529527
vt -0.010071 0.000000
vt 0.073641 0.529527
vt 0.248421 0.529527
vt 0.247475 0.000000
vt 0.342631 0.529527
vt 0.517441 0.529527
vt 0.517930 0.000000
vt 0.601978 0.529527
vt 0.601184 0.000000
vt 0.691519 0.529527
vt 0.691519 0.000000
vt 0.783471 0.529527
vt 0.781823 0.000000
vt 0.801782 0.201727
vt 0.946745 0.201727
vt 0.946745 0.001984
vt 0.801782 0.537034
vt 0.946745 0.537034
vt 0.801782 0.442976
vt 0.946745 0.442976
vt 0.801782 0.336039
vt 0.946745 0.336039
vt 0.801782 0.246040
vt 0.946745 0.246040
vt 0.801782 0.137455
vt 0.946745 0.137455
vt 0.787959 0.565233
vt 0.909850 0.660360
vt 0.628866 0.565233
vt 0.937469 0.806085
vt 0.479356 0.806085
vt 0.506975 0.660360
vt 0.558918 0.934263
vt 0.708428 0.984863
vt 0.857938 0.934263
vt 0.167917 0.567240
vt 0.325695 0.567240
vt 0.047051 0.661575
vt 0.446560 0.661575
vt 0.098535 0.933164
vt 0.019660 0.806074
vt 0.246792 0.983356
vt 0.395048 0.933164
vt 0.473951 0.806074
vn -0.210200 0.976500 -0.046600
vn -0.496100 -0.629900 -0.597500
vn -0.767300 -0.624900 -0.143900
vn 0.088600 0.973800 0.209300
vn -0.283300 -0.626600 0.726000
vn 0.245900 -0.634300 0.732900
vn -0.487500 0.661300 0.570100
vn 0.163400 0.971400 -0.172400
vn -0.002500 0.655200 0.755400
vn 0.516200 -0.856000 0.027800
vn 0.265500 -0.926600 0.266300
vn -0.211600 -0.858200 -0.467700
vn 0.820000 -0.477300 0.315700
vn 0.443900 -0.582100 0.681200
vn 0.406800 -0.271900 0.872100
vn 0.678900 0.088400 0.728800
vn 0.513100 -0.051600 0.856800
vn 0.842500 0.051700 0.536100
vn 0.915800 -0.131200 0.379600
vn 0.500600 0.846500 -0.181000
vn -0.392200 0.273900 -0.878100
vn 0.699700 0.360000 -0.617100
vn 0.616800 -0.337300 -0.711100
vn -0.172400 -0.474100 -0.863400
vn -0.408200 0.390300 -0.825200
vn -0.605100 0.490100 -0.627400
vn -0.746300 0.444000 -0.495800
vn -0.697200 -0.624100 -0.352600
vn -0.918600 0.133500 -0.371800
vn -0.590100 -0.670200 0.450000
vn -0.471100 0.573000 -0.670600
vn -0.631500 0.609800 -0.479000
vn 0.062900 0.939600 0.336400
vn -0.399900 0.592400 0.699300
vn -0.806100 0.476700 -0.350600
vn -0.681100 -0.031400 0.731500
vn -0.908500 0.251400 -0.333700
vn -0.240200 0.653700 -0.717600
vn -0.642200 0.659400 -0.390900
vn 0.202500 0.971900 0.120200
vn 0.015400 0.972800 -0.231000
vn 0.003500 -0.636600 -0.771200
vn -0.134200 0.975100 -0.176600
vn -0.188800 0.976400 0.104400
vn -0.683200 -0.624100 0.378900
vn -0.065000 0.975400 0.210500
vn 0.656400 -0.640500 0.398700
vn 0.234800 0.971000 -0.045300
vn 0.755700 -0.643800 -0.120400
vn 0.498500 -0.642000 -0.582600
vn -0.739600 0.662700 0.117100
vn 0.485800 0.649900 0.584500
vn 0.750800 0.645300 0.140500
vn 0.669700 0.643000 -0.371400
vn 0.277200 0.646700 -0.710600
usemtl DogFoodCan
s 1
f 4/1/1 3/2/2 5/3/3
f 8/4/4 7/5/5 9/6/6
f 15/7/7 16/8/8 17/9/9
f 29/10/10 30/11/11 28/12/12
f 29/10/10 31/13/13 30/11/11
f 30/11/11 31/13/13 32/14/14
f 32/14/14 31/13/13 33/15/15
f 35/16/16 34/17/17 33/15/15
f 36/18/18 35/16/16 33/15/15
f 36/18/18 38/19/19 37/20/20
f 38/19/19 36/18/18 33/15/15
f 31/13/13 38/19/19 33/15/15
f 39/13/21 40/21/22 41/22/23
f 41/22/23 42/23/24 39/13/21
f 43/19/25 40/21/22 39/13/21
f 39/13/21 42/23/24 44/10/26
f 44/10/26 42/23/24 45/11/27
f 45/11/27 42/23/24 46/24/28
f 45/11/27 47/14/29 44/10/26
f 45/11/27 46/24/28 47/14/29
f 44/10/26 47/14/29 39/13/21
f 39/13/21 47/14/29 43/19/25
f 47/14/29 46/24/28 48/25/30
f 43/19/25 47/14/29 49/18/31
f 51/16/32 50/26/33 49/18/31
f 49/18/31 47/14/29 51/16/32
f 51/16/32 52/27/34 50/26/33
f 53/17/35 52/27/34 51/16/32
f 51/16/32 47/14/29 53/17/35
f 53/17/35 54/28/36 52/27/34
f 55/15/37 54/28/36 53/17/35
f 47/14/29 55/15/37 53/17/35
f 55/15/37 48/25/30 54/28/36
f 47/14/29 48/25/30 55/15/37
f 46/24/28 42/23/24 28/12/12
f 1/29/38 8/30/4 14/31/39
f 14/31/39 8/30/4 2/32/40
f 13/33/41 27/34/42 18/35/43
f 18/35/43 27/34/42 3/2/2
f 18/35/43 3/2/2 4/1/1
f 4/1/1 5/3/3 20/36/44
f 20/36/44 5/3/3 6/37/45
f 20/36/44 6/37/45 21/38/46
f 21/38/46 6/37/45 7/5/5
f 21/38/46 7/5/5 8/4/4
f 8/4/4 9/6/6 2/39/40
f 2/39/40 9/6/6 26/40/47
f 2/39/40 26/40/47 10/41/48
f 10/41/48 26/40/47 11/42/49
f 10/41/48 11/42/49 16/43/8
f 16/43/8 11/42/49 12/44/50
f 16/43/8 12/44/50 13/45/41
f 13/45/41 12/44/50 27/46/42
f 14/31/39 2/32/40 25/47/51
f 25/47/51 2/32/40 10/48/48
f 25/47/51 10/48/48 15/7/7
f 15/7/7 10/48/48 16/8/8
f 17/9/9 16/8/8 13/49/41
f 17/50/9 13/51/41 24/52/52
f 24/52/52 13/51/41 18/53/43
f 24/52/52 18/53/43 19/54/53
f 19/54/53 18/53/43 4/55/1
f 19/54/53 4/55/1 23/56/54
f 23/56/54 4/55/1 20/57/44
f 23/56/54 20/57/44 22/58/55
f 22/58/55 20/57/44 21/59/46
f 22/58/55 21/59/46 1/29/38
f 1/29/38 21/59/46 8/30/4
f 22/60/55 1/61/38 23/62/54
f 1/61/38 14/63/39 23/62/54
f 24/64/52 19/65/53 23/62/54
f 17/66/9 24/64/52 23/62/54
f 15/67/7 17/66/9 23/62/54
f 25/68/51 15/67/7 23/62/54
f 14/63/39 25/68/51 23/62/54
f 7/69/5 6/70/45 9/71/6
f 6/70/45 5/72/3 9/71/6
f 11/73/49 26/74/47 9/71/6
f 12/75/50 11/73/49 9/71/6
f 27/76/42 12/75/50 9/71/6
f 3/77/2 27/76/42 9/71/6
f 5/72/3 3/77/2 9/71/6
f 28/12/12 42/23/24 29/10/10
f 42/23/24 41/22/23 29/10/10
f 30/11/11 46/24/28 28/12/12
f 30/11/11 48/25/30 46/24/28
f 29/10/10 41/22/23 31/13/13
f 40/21/22 31/13/13 41/22/23
f 32/14/14 48/25/30 30/11/11
f 32/14/14 33/15/15 48/25/30
f 48/25/30 33/15/15 54/28/36
f 33/15/15 34/17/17 54/28/36
f 54/28/36 34/17/17 52/27/34
f 34/17/17 35/16/16 52/27/34
f 52/27/34 35/16/16 50/26/33
f 35/16/16 36/18/18 50/26/33
f 50/26/33 36/18/18 37/20/20
f 37/20/20 38/19/19 40/21/22
f 38/19/19 31/13/13 40/21/22
f 43/19/25 37/20/20 40/21/22
f 49/18/31 37/20/20 43/19/25
f 49/18/31 50/26/33 37/20/20
